<svg xmlns="http://www.w3.org/2000/svg" viewBox="0 0 900 500" font-family="system-ui, sans-serif">
  <rect width="900" height="500" fill="#0d1117"/>
  <!-- header -->
  <rect x="0" y="0" width="900" height="40" fill="#161b22" stroke="#30363d" stroke-width="0.5"/>
  <text x="12" y="26" fill="#58a6ff" font-size="12">← Sessions</text>
  <text x="100" y="26" fill="#e6edf3" font-size="12" font-weight="600" font-family="monospace">ses_1e1f5baa9ffeNIpaBJSkoMbzgq</text>
  <text x="380" y="26" fill="#8b949e" font-size="10">15 calls</text>
  <circle cx="870" cy="20" r="8" fill="none" stroke="#30363d"/>
  <circle cx="870" cy="20" r="3" fill="#d29922"/>
  <!-- sidebar -->
  <rect x="0" y="40" width="240" height="460" fill="#0d1117" stroke="#30363d" stroke-width="0.5"/>
  <!-- filter -->
  <rect x="8" y="48" width="224" height="22" rx="3" fill="#161b22" stroke="#30363d"/>
  <text x="16" y="63" fill="#8b949e" font-size="10">Search messages, model, URL...</text>
  <rect x="8" y="76" width="52" height="18" rx="3" fill="#161b22" stroke="#30363d"/>
  <text x="16" y="89" fill="#8b949e" font-size="9">All status ▾</text>
  <rect x="64" y="76" width="60" height="18" rx="3" fill="#161b22" stroke="#30363d"/>
  <text x="72" y="89" fill="#8b949e" font-size="9">All resp ▾</text>
  <rect x="128" y="76" width="70" height="18" rx="3" fill="#161b22" stroke="#30363d"/>
  <text x="136" y="89" fill="#8b949e" font-size="9">All prov ▾</text>
  <rect x="0" y="100" width="240" height="1" fill="#30363d"/>
  <!-- call items -->
  <rect x="0" y="101" width="240" height="42" fill="#58a6ff" opacity="0.1"/>
  <rect x="0" y="101" width="3" height="42" fill="#58a6ff"/>
  <text x="12" y="117" fill="#e6edf3" font-size="11" font-family="monospace">001</text>
  <text x="42" y="117" fill="#3fb950" font-size="11" font-family="monospace">200</text>
  <text x="76" y="117" fill="#8b949e" font-size="10">1.56s</text>
  <text x="12" y="133" fill="#8b949e" font-size="9">deepseek-v4-pro · anthropic</text>
  <rect x="0" y="143" width="240" height="42" fill="none"/>
  <rect x="0" y="143" width="3" height="42" fill="none"/>
  <text x="12" y="159" fill="#e6edf3" font-size="11" font-family="monospace">002</text>
  <text x="42" y="159" fill="#3fb950" font-size="11" font-family="monospace">200</text>
  <text x="76" y="159" fill="#8b949e" font-size="10">1.25s</text>
  <text x="12" y="175" fill="#8b949e" font-size="9">deepseek-v4-pro · anthropic</text>
  <rect x="0" y="185" width="240" height="42" fill="#161b22" opacity="0.5"/>
  <rect x="0" y="185" width="3" height="42" fill="none"/>
  <text x="12" y="201" fill="#e6edf3" font-size="11" font-family="monospace">003</text>
  <text x="42" y="201" fill="#3fb950" font-size="11" font-family="monospace">200</text>
  <text x="76" y="201" fill="#8b949e" font-size="10">0.18s</text>
  <text x="12" y="217" fill="#8b949e" font-size="9">deepseek-v4-flash · anthropic</text>
  <!-- more items -->
  <rect x="0" y="227" width="240" height="20" fill="none"/>
  <text x="12" y="241" fill="#8b949e" font-size="9">004 · 200 · 0.22s</text>
  <text x="12" y="257" fill="#8b949e" font-size="9">005 · 200 · 0.15s</text>
  <text x="12" y="273" fill="#8b949e" font-size="9">· · ·</text>
  <!-- bottom bar -->
  <rect x="0" y="472" width="240" height="28" fill="#161b22" stroke="#30363d" stroke-width="0.5"/>
  <text x="8" y="489" fill="#8b949e" font-size="9">15 / 15 calls</text>
  <!-- detail panel -->
  <rect x="240" y="40" width="660" height="460" fill="#0d1117"/>
  <!-- tabs -->
  <rect x="240" y="40" width="660" height="32" fill="#0d1117" stroke="#30363d" stroke-width="0.5"/>
  <text x="252" y="60" fill="#58a6ff" font-size="10" font-weight="600">Overview</text>
  <rect x="240" y="70" width="60" height="2" fill="#58a6ff"/>
  <text x="312" y="60" fill="#8b949e" font-size="10">Request</text>
  <text x="372" y="60" fill="#8b949e" font-size="10">Response</text>
  <text x="440" y="60" fill="#8b949e" font-size="10">JSON (Req)</text>
  <text x="518" y="60" fill="#8b949e" font-size="10">JSON (Res)</text>
  <!-- overview cards -->
  <rect x="252" y="86" width="144" height="50" rx="4" fill="#161b22" stroke="#30363d"/>
  <text x="260" y="100" fill="#8b949e" font-size="8" text-transform="uppercase">STATUS</text>
  <text x="260" y="118" fill="#3fb950" font-size="14" font-family="monospace">200 OK</text>
  <rect x="404" y="86" width="144" height="50" rx="4" fill="#161b22" stroke="#30363d"/>
  <text x="412" y="100" fill="#8b949e" font-size="8" text-transform="uppercase">DURATION</text>
  <text x="412" y="118" fill="#e6edf3" font-size="14" font-family="monospace">1.56s</text>
  <rect x="556" y="86" width="144" height="50" rx="4" fill="#161b22" stroke="#30363d"/>
  <text x="564" y="100" fill="#8b949e" font-size="8" text-transform="uppercase">MODEL</text>
  <text x="564" y="118" fill="#e6edf3" font-size="14" font-family="monospace">deepseek-v4-pro</text>
  <rect x="252" y="144" width="144" height="50" rx="4" fill="#161b22" stroke="#30363d"/>
  <text x="260" y="158" fill="#8b949e" font-size="8" text-transform="uppercase">REQUEST SIZE</text>
  <text x="260" y="176" fill="#e6edf3" font-size="14" font-family="monospace">100.4KB</text>
  <rect x="404" y="144" width="144" height="50" rx="4" fill="#161b22" stroke="#30363d"/>
  <text x="412" y="158" fill="#8b949e" font-size="8" text-transform="uppercase">RESPONSE SIZE</text>
  <text x="412" y="176" fill="#e6edf3" font-size="14" font-family="monospace">11.0KB</text>
  <rect x="556" y="144" width="144" height="50" rx="4" fill="#161b22" stroke="#30363d"/>
  <text x="564" y="158" fill="#8b949e" font-size="8" text-transform="uppercase">PROVIDER</text>
  <text x="564" y="176" fill="#e6edf3" font-size="14" font-family="monospace">anthropic</text>
  <!-- diff summary -->
  <rect x="252" y="210" width="448" height="22" rx="3" fill="#161b22" stroke="#30363d" opacity="0.5"/>
  <text x="260" y="225" fill="#8b949e" font-size="9">2 new, 1 modified, 35 unchanged from previous</text>
</svg>
